<?xml version="1.0" encoding="utf-8"?>
<!-- Generator: Adobe Illustrator 27.4.1, SVG Export Plug-In . SVG Version: 6.00 Build 0)  -->
<svg version="1.1" id="Слой_1" xmlns="http://www.w3.org/2000/svg" xmlns:xlink="http://www.w3.org/1999/xlink" x="0px" y="0px"
	 viewBox="0 0 500 500" style="enable-background:new 0 0 500 500;" xml:space="preserve">
<style type="text/css">
	.st0{fill:#FFFFFF;}
	.st1{fill:#DA1E37;}
</style>
<circle class="st0" cx="250" cy="251.8" r="250"/>
<g>
	<path d="M249.8,215.4c-1.7,3.6-2.9,6.4-4.2,9c-24.4,49.8-64.7,80-117.5,94.4c-22.8,6.2-46.1,7.7-69.7,5.1c-7.2-0.8-8.8-2.2-8.9-9.5
		c-0.9-60.5,24.2-108.5,71.4-144.9c46.1-35.5,98.9-48.5,156.4-41.2c59.5,7.6,107.9,34.8,142.8,84.3c20.5,29.1,30.3,61.9,30.4,97.5
		c0,12.2-0.4,13.1-12.3,13.9c-64.9,4.5-120.1-15.6-162.4-65.9c-9.3-11-15.5-24.7-23.1-37.2C251.8,219.4,251.1,217.8,249.8,215.4z"/>
	<path d="M249.8,261.8c1.3,1.8,2.4,3.3,3.4,4.7c39.7,56.3,94.1,83.4,162.9,81.5c14.8-0.4,15.3-0.5,10.9,13.7
		c-22.5,73.4-71,119.7-146.8,132.9c-96.9,17-186.1-43.7-209.2-139.3c-1.6-6.7-0.1-8.5,6.2-8c71.1,4.7,127.2-22.4,168.7-80.1
		C247.3,265.6,248.4,263.9,249.8,261.8z"/>
	<path class="st1" d="M450.5,310.2c-0.1-35.6-9.9-68.4-30.4-97.5c-34.8-49.5-83.2-76.8-142.8-84.3c-57.5-7.3-110.4,5.7-156.4,41.2
		c-47.2,36.4-72.3,84.4-71.4,144.9c0.1,7.3,1.7,8.7,8.9,9.5c23.5,2.6,46.8,1.1,69.7-5.1c52.8-14.3,93.1-44.5,117.5-94.4
		c1.3-2.7,2.5-5.4,4.2-9c1.3,2.5,2,4,2.9,5.5c7.6,12.5,13.8,26.1,23.1,37.2c42.4,50.3,97.6,70.5,162.4,65.9
		C450.2,323.2,450.6,322.3,450.5,310.2z M91.1,300.9c-7.9,0-14.4-6.4-14.4-14.4c0-7.9,6.4-14.4,14.4-14.4c7.9,0,14.4,6.4,14.4,14.4
		C105.4,294.5,99,300.9,91.1,300.9z M155.2,254.7c-16.7,0-30.2-13.5-30.2-30.2s13.5-30.2,30.2-30.2c16.7,0,30.2,13.5,30.2,30.2
		S171.9,254.7,155.2,254.7z M220,187.7c-7.9,0-14.4-6.4-14.4-14.4c0-7.9,6.4-14.4,14.4-14.4c7.9,0,14.4,6.4,14.4,14.4
		C234.4,181.2,228,187.7,220,187.7z M279.7,187.7c-7.9,0-14.4-6.4-14.4-14.4c0-7.9,6.4-14.4,14.4-14.4c7.9,0,14.4,6.4,14.4,14.4
		C294.1,181.2,287.6,187.7,279.7,187.7z M344.5,254.7c-16.7,0-30.2-13.5-30.2-30.2s13.5-30.2,30.2-30.2s30.2,13.5,30.2,30.2
		S361.2,254.7,344.5,254.7z M408.7,300.9c-7.9,0-14.4-6.4-14.4-14.4c0-7.9,6.4-14.4,14.4-14.4s14.4,6.4,14.4,14.4
		C423.1,294.5,416.6,300.9,408.7,300.9z"/>
	<path d="M216.9,50.4c22.8-8.7,46.4-8.4,70,1.8c2.9-3.8,5.6-7.5,8.6-11.1c25.2-30,57.2-40.3,95.3-32.6c1,0.2,2.2,0.3,2.9,0.9
		c1.1,0.9,2,2.1,3,3.3c-1.4,0.8-2.9,2.4-4.2,2.3c-4.8-0.4-9.6-1.6-14.5-2.3c-33.6-4.3-68.3,13.1-84.6,42.2
		c32.4,25.6,45,45.9,45.5,73.1c-59.1-33.3-118.2-33.5-177.3-0.4c-4-21.1,14.7-50.3,47.8-74.2c-14.9-27.5-50.5-44.9-83.4-40.8
		c-4.2,0.5-8.4,1.6-12.7,1.9c-2,0.1-4-1.2-6-1.8c1.5-1.3,2.8-3.4,4.6-3.8c29.6-6.6,57.3-2.5,81.2,17.2
		C201.5,33.2,208.6,41.9,216.9,50.4z"/>
</g>
</svg>
