<?xml version="1.0" encoding="utf-8"?>
<!-- Generator: Adobe Illustrator 27.4.1, SVG Export Plug-In . SVG Version: 6.00 Build 0)  -->
<svg version="1.1" id="Layer_1" xmlns="http://www.w3.org/2000/svg" xmlns:xlink="http://www.w3.org/1999/xlink" x="0px" y="0px"
	 viewBox="0 0 150 60" style="enable-background:new 0 0 150 60;" xml:space="preserve">
<style type="text/css">
	.st0{fill:#FFFFFF;}
</style>
<path id="logo_00000064325847640335246650000001016503673187329706_" class="st0" d="M22.7,31.2c0.2,0.2,0.3,0.4,0.4,0.5
	c4.5,6.5,10.8,9.6,18.7,9.3c1.7,0,1.7-0.1,1.3,1.6c-2.6,8.4-8.1,13.7-16.8,15.2c-11.1,1.9-21.3-5-24-16c-0.2-0.8,0-1,0.7-0.9
	c8.2,0.5,14.6-2.6,19.3-9.2C22.4,31.6,22.5,31.4,22.7,31.2z M44.3,38.3c-7.4,0.5-13.8-1.8-18.6-7.6c-1.1-1.3-1.8-2.8-2.6-4.3
	c-0.1-0.2-0.2-0.4-0.3-0.6c-0.2,0.4-0.3,0.7-0.5,1c-2.8,5.7-7.4,9.2-13.5,10.8c-2.6,0.7-5.3,0.9-8,0.6c-0.8-0.1-1-0.3-1-1.1
	c-0.1-6.9,2.8-12.4,8.2-16.6c5.3-4.1,11.3-5.6,17.9-4.7c6.8,0.9,12.4,4,16.4,9.7c2.3,3.3,3.5,7.1,3.5,11.2
	C45.7,38.1,45.7,38.2,44.3,38.3z M6.2,34c0-0.9-0.7-1.6-1.6-1.6c-0.9,0-1.6,0.7-1.6,1.6c0,0.9,0.7,1.6,1.6,1.6
	C5.4,35.6,6.2,34.9,6.2,34z M15.3,26.9c0-1.9-1.5-3.5-3.5-3.5c-1.9,0-3.5,1.5-3.5,3.5s1.5,3.5,3.5,3.5
	C13.8,30.3,15.3,28.8,15.3,26.9z M20.9,21c0-0.9-0.7-1.6-1.6-1.6c-0.9,0-1.6,0.7-1.6,1.6c0,0.9,0.7,1.6,1.6,1.6
	C20.2,22.7,20.9,21.9,20.9,21z M27.8,21c0-0.9-0.7-1.6-1.6-1.6c-0.9,0-1.6,0.7-1.6,1.6c0,0.9,0.7,1.6,1.6,1.6
	C27,22.7,27.8,21.9,27.8,21z M37,26.9c0-1.9-1.5-3.5-3.5-3.5c-1.9,0-3.5,1.5-3.5,3.5s1.5,3.5,3.5,3.5C35.5,30.3,37,28.8,37,26.9z
	 M42.6,34c0-0.9-0.7-1.6-1.6-1.6c-0.9,0-1.6,0.7-1.6,1.6c0,0.9,0.7,1.6,1.6,1.6C41.8,35.6,42.6,34.9,42.6,34z M16.2,4.1
	c-2.7-2.3-5.9-2.7-9.3-2c-0.2,0-0.3,0.3-0.5,0.4c0.2,0.1,0.5,0.2,0.7,0.2c0.5,0,1-0.2,1.5-0.2c3.8-0.5,7.9,1.5,9.6,4.7
	c-3.8,2.7-5.9,6.1-5.5,8.5c6.8-3.8,13.5-3.8,20.3,0c-0.1-3.1-1.5-5.4-5.2-8.4c1.9-3.3,5.8-5.3,9.7-4.8c0.6,0.1,1.1,0.2,1.7,0.3
	c0.2,0,0.3-0.2,0.5-0.3c-0.1-0.1-0.2-0.3-0.3-0.4c-0.1-0.1-0.2-0.1-0.3-0.1c-4.4-0.9-8,0.3-10.9,3.7c-0.3,0.4-0.7,0.8-1,1.3
	c-2.7-1.2-5.4-1.2-8-0.2C18,6,17.2,5,16.2,4.1z M49.5,15.5h3.2v11.4h7v2.6H49.5V15.5z M70.9,26.5h-6.5l-1.2,3h-3.3l6.3-14h3.2
	l6.3,14h-3.4L70.9,26.5z M69.9,24l-2.2-5.4L65.5,24H69.9z M77,15.5h6.4c4.6,0,7.7,2.8,7.7,7c0,4.2-3.1,7-7.7,7H77V15.5z M83.3,26.8
	c2.8,0,4.6-1.7,4.6-4.3s-1.8-4.3-4.6-4.3h-3v8.7H83.3z M99.7,24.5v5h-3.2v-5l-5.4-9h3.4l3.7,6.2l3.7-6.2h3.2L99.7,24.5z M119.3,25.7
	c0,2.4-1.9,3.8-5.6,3.8h-7.3v-14h6.9c3.5,0,5.3,1.5,5.3,3.6c0,1.4-0.7,2.5-1.9,3.1C118.3,22.7,119.3,23.9,119.3,25.7z M109.6,17.9
	v3.3h3.2c1.6,0,2.4-0.6,2.4-1.7s-0.9-1.6-2.4-1.6H109.6z M116,25.3c0-1.2-0.9-1.7-2.6-1.7h-3.8V27h3.8C115.1,27,116,26.5,116,25.3z
	 M121.6,23.3v-7.9h3.2v7.7c0,2.7,1.2,3.8,3.1,3.8c2,0,3.1-1.1,3.1-3.8v-7.7h3.2v7.9c0,4.1-2.4,6.4-6.4,6.4
	C124,29.7,121.6,27.4,121.6,23.3z M147,22.3h3v5.7c-1.5,1.2-3.7,1.8-5.7,1.8c-4.4,0-7.7-3-7.7-7.3s3.2-7.3,7.7-7.3
	c2.5,0,4.5,0.8,5.9,2.4l-2.1,1.9c-1-1.1-2.2-1.6-3.6-1.6c-2.7,0-4.6,1.8-4.6,4.5c0,2.6,1.9,4.5,4.6,4.5c0.9,0,1.7-0.2,2.5-0.6V22.3z
	 M62.2,51l0-8.4l-4.1,6.9h-1.5l-4.1-6.8V51h-3v-14h2.7l5.3,8.7l5.2-8.7h2.7l0,14H62.2z M67.7,44c0-4.2,3.2-7.3,7.7-7.3
	c4.4,0,7.7,3.1,7.7,7.3c0,4.2-3.3,7.3-7.7,7.3C71,51.2,67.7,48.1,67.7,44z M79.8,44c0-2.7-1.9-4.5-4.4-4.5c-2.5,0-4.4,1.8-4.4,4.5
	c0,2.7,1.9,4.5,4.4,4.5C77.9,48.4,79.8,46.6,79.8,44z M98.5,36.9l-6.1,14h-3.2l-6.1-14h3.5L91,47l4.3-10H98.5z M99.7,36.9h3.2v14
	h-3.2V36.9z M119.2,36.9v14h-2.7l-7-8.5V51h-3.2v-14h2.7l7,8.5v-8.5H119.2z M132,43.7h3v5.7c-1.5,1.2-3.7,1.8-5.7,1.8
	c-4.4,0-7.7-3-7.7-7.3s3.2-7.3,7.7-7.3c2.5,0,4.5,0.8,5.9,2.4l-2.1,1.9c-1-1.1-2.2-1.6-3.6-1.6c-2.7,0-4.6,1.8-4.6,4.5
	c0,2.6,1.9,4.5,4.6,4.5c0.9,0,1.7-0.2,2.5-0.6V43.7z"/>
</svg>
