<?xml version="1.0" encoding="UTF-8"?>
<svg id="Layer_2" data-name="Layer 2" xmlns="http://www.w3.org/2000/svg" viewBox="0 0 150.5 56.32">
  <defs>
    <style>
      .cls-1 {
        fill: #fff;
      }
    </style>
  </defs>
  <g id="Layer_1-2" data-name="Layer 1">
    <path id="logo" class="cls-1" d="m22.96,29.31c.15.21.27.37.39.54,4.55,6.46,10.78,9.55,18.67,9.34,1.69-.05,1.75-.06,1.25,1.56-2.58,8.41-8.13,13.71-16.82,15.23-11.1,1.95-21.33-5-23.97-15.96-.18-.77-.01-.97.71-.92,8.15.53,14.58-2.57,19.33-9.18.13-.18.26-.37.43-.62Zm21.59,7.13c-7.43.52-13.76-1.79-18.61-7.56-1.07-1.27-1.77-2.83-2.64-4.26-.1-.17-.19-.35-.34-.63-.19.42-.33.73-.48,1.03-2.8,5.71-7.41,9.17-13.47,10.81-2.61.71-5.28.88-7.98.58-.83-.09-1.01-.25-1.02-1.09-.11-6.93,2.77-12.43,8.18-16.6,5.28-4.07,11.34-5.55,17.93-4.72,6.82.87,12.37,3.99,16.36,9.66,2.35,3.34,3.47,7.09,3.49,11.17,0,1.39-.04,1.5-1.41,1.59Zm-38.14-4.29c0-.91-.74-1.65-1.65-1.65s-1.65.74-1.65,1.65.74,1.65,1.65,1.65,1.65-.74,1.65-1.65Zm9.17-7.11c0-1.91-1.55-3.46-3.46-3.46s-3.46,1.55-3.46,3.46,1.55,3.46,3.46,3.46,3.46-1.55,3.46-3.46Zm5.61-5.87c0-.91-.74-1.65-1.65-1.65s-1.65.74-1.65,1.65.74,1.65,1.65,1.65,1.65-.74,1.65-1.65Zm6.84,0c0-.91-.74-1.65-1.65-1.65s-1.65.74-1.65,1.65.74,1.65,1.65,1.65,1.65-.74,1.65-1.65Zm9.25,5.87c0-1.91-1.55-3.46-3.46-3.46s-3.46,1.55-3.46,3.46,1.55,3.46,3.46,3.46,3.46-1.55,3.46-3.46Zm5.54,7.11c0-.91-.74-1.65-1.65-1.65s-1.65.74-1.65,1.65.74,1.65,1.65,1.65,1.65-.74,1.65-1.65ZM16.44,2.3C13.7.05,10.53-.42,7.13.33c-.2.04-.35.28-.52.43.23.08.46.22.69.21.49-.03.97-.15,1.45-.22,3.77-.48,7.85,1.52,9.56,4.67-3.79,2.74-5.93,6.08-5.47,8.5,6.78-3.79,13.55-3.77,20.32.04-.06-3.11-1.51-5.44-5.22-8.37,1.87-3.33,5.85-5.32,9.69-4.84.55.07,1.1.21,1.66.26.15.01.32-.17.48-.27-.11-.13-.21-.27-.34-.37-.09-.07-.22-.08-.33-.1-4.36-.87-8.03.3-10.91,3.74-.34.41-.65.84-.98,1.27-2.71-1.16-5.41-1.2-8.02-.2-.95-.98-1.77-1.98-2.75-2.79Zm33.27,11.31h3.25v11.39h7.04v2.65h-10.28v-14.03Zm21.47,11.03h-6.51l-1.24,3.01h-3.33l6.25-14.03h3.21l6.27,14.03h-3.41l-1.24-3.01Zm-1.02-2.47l-2.23-5.37-2.23,5.37h4.45Zm7.14-8.56h6.37c4.59,0,7.74,2.77,7.74,7.02s-3.15,7.02-7.74,7.02h-6.37v-14.03Zm6.21,11.37c2.79,0,4.61-1.66,4.61-4.35s-1.82-4.35-4.61-4.35h-2.97v8.7h2.97Zm16.48-2.31v4.97h-3.25v-5.01l-5.43-9.02h3.45l3.75,6.23,3.75-6.23h3.19l-5.45,9.06Zm19.55,1.14c0,2.43-1.92,3.83-5.61,3.83h-7.26v-14.03h6.86c3.51,0,5.31,1.46,5.31,3.65,0,1.4-.72,2.49-1.86,3.09,1.56.5,2.57,1.7,2.57,3.47Zm-9.64-7.76v3.31h3.23c1.58,0,2.45-.56,2.45-1.66s-.86-1.64-2.45-1.64h-3.23Zm6.37,7.42c0-1.18-.9-1.74-2.59-1.74h-3.79v3.47h3.79c1.68,0,2.59-.52,2.59-1.72Zm5.61-2v-7.86h3.25v7.74c0,2.67,1.16,3.77,3.13,3.77s3.13-1.1,3.13-3.77v-7.74h3.21v7.86c0,4.13-2.37,6.41-6.35,6.41s-6.35-2.29-6.35-6.41Zm25.4-1.06h2.97v5.69c-1.54,1.16-3.67,1.78-5.67,1.78-4.41,0-7.66-3.03-7.66-7.26s3.25-7.26,7.72-7.26c2.47,0,4.51.84,5.87,2.43l-2.08,1.92c-1.02-1.08-2.21-1.58-3.63-1.58-2.73,0-4.59,1.82-4.59,4.49s1.86,4.49,4.55,4.49c.88,0,1.7-.16,2.53-.6v-4.11Zm-84.79,28.72l-.02-8.42-4.13,6.94h-1.46l-4.11-6.76v8.24h-3.05v-14.03h2.69l5.25,8.72,5.17-8.72h2.67l.04,14.03h-3.05Zm5.49-7.02c0-4.17,3.25-7.26,7.68-7.26s7.68,3.07,7.68,7.26-3.27,7.26-7.68,7.26-7.68-3.09-7.68-7.26Zm12.07,0c0-2.67-1.88-4.49-4.39-4.49s-4.39,1.82-4.39,4.49,1.88,4.49,4.39,4.49,4.39-1.82,4.39-4.49Zm18.76-7.02l-6.07,14.03h-3.21l-6.05-14.03h3.51l4.27,10.02,4.33-10.02h3.23Zm1.16,0h3.25v14.03h-3.25v-14.03Zm19.44,0v14.03h-2.67l-7-8.52v8.52h-3.21v-14.03h2.69l6.98,8.52v-8.52h3.21Zm12.81,6.8h2.97v5.69c-1.54,1.16-3.67,1.78-5.67,1.78-4.41,0-7.66-3.03-7.66-7.26s3.25-7.26,7.72-7.26c2.47,0,4.51.84,5.87,2.43l-2.08,1.92c-1.02-1.08-2.21-1.58-3.63-1.58-2.73,0-4.59,1.82-4.59,4.49s1.86,4.49,4.55,4.49c.88,0,1.7-.16,2.53-.6v-4.11Z"/>
  </g>
</svg>