<?xml version="1.0" encoding="utf-8"?>
<!-- Generator: Adobe Illustrator 27.4.1, SVG Export Plug-In . SVG Version: 6.00 Build 0)  -->
<svg version="1.1" id="Слой_1" xmlns="http://www.w3.org/2000/svg" xmlns:xlink="http://www.w3.org/1999/xlink" x="0px" y="0px"
	 viewBox="0 0 500 500" style="enable-background:new 0 0 500 500;" xml:space="preserve">
<style type="text/css">
	.st0{fill:#FFFFFF;}
</style>
<path id="icon_00000080898729108580995350000001487250815167543953_" class="st0" d="M250.4,260.2c1.4,1.9,2.4,3.3,3.5,4.8
	c40.4,57.3,95.8,84.8,165.7,82.9c15-0.4,15.5-0.5,11.1,13.9c-22.9,74.7-72.2,121.7-149.3,135.2C182.8,514.4,92,452.7,68.6,355.4
	c-1.6-6.8-0.1-8.6,6.3-8.2c72.4,4.7,129.4-22.8,171.7-81.5C247.8,264.1,248.9,262.4,250.4,260.2z M442,323.5
	c-66,4.6-122.1-15.9-165.2-67.1c-9.5-11.2-15.7-25.1-23.5-37.8c-0.9-1.5-1.7-3.1-3-5.6c-1.7,3.7-2.9,6.5-4.3,9.2
	c-24.8,50.7-65.8,81.4-119.6,96c-23.2,6.3-46.9,7.8-70.9,5.2c-7.4-0.8-9-2.3-9.1-9.6c-1-61.5,24.6-110.4,72.6-147.4
	c46.9-36.1,100.6-49.3,159.2-41.9c60.6,7.7,109.8,35.5,145.3,85.8c20.9,29.6,30.8,63,30.9,99.2C454.6,321.8,454.2,322.7,442,323.5z
	 M103.5,285.4c0-8.1-6.5-14.6-14.6-14.6c-8.1,0-14.6,6.5-14.6,14.6c0,8.1,6.5,14.6,14.6,14.6C96.9,300,103.5,293.5,103.5,285.4z
	 M184.8,222.3c0-17-13.8-30.7-30.7-30.7c-17,0-30.7,13.8-30.7,30.7s13.8,30.7,30.7,30.7C171.1,253,184.8,239.2,184.8,222.3z
	 M234.7,170.2c0-8.1-6.5-14.6-14.6-14.6c-8.1,0-14.6,6.5-14.6,14.6c0,8.1,6.5,14.6,14.6,14.6C228.1,184.8,234.7,178.2,234.7,170.2z
	 M295.4,170.2c0-8.1-6.5-14.6-14.6-14.6c-8.1,0-14.6,6.5-14.6,14.6c0,8.1,6.5,14.6,14.6,14.6C288.8,184.8,295.4,178.2,295.4,170.2z
	 M377.5,222.3c0-17-13.8-30.7-30.7-30.7S316,205.3,316,222.3s13.8,30.7,30.7,30.7S377.5,239.2,377.5,222.3z M426.6,285.4
	c0-8.1-6.5-14.6-14.6-14.6c-8.1,0-14.6,6.5-14.6,14.6c0,8.1,6.5,14.6,14.6,14.6C420.1,300,426.6,293.5,426.6,285.4z M192.5,20.4
	C168.2,0.4,140-3.8,109.9,2.9c-1.7,0.4-3.1,2.5-4.6,3.8c2,0.7,4.1,2,6.1,1.9c4.3-0.3,8.6-1.4,12.9-1.9c33.5-4.2,69.7,13.5,84.9,41.5
	c-33.6,24.3-52.6,54-48.6,75.5C220.7,90,280.8,90.1,341,124c-0.5-27.6-13.4-48.3-46.3-74.3c16.6-29.6,51.9-47.3,86.1-42.9
	c4.9,0.6,9.8,1.8,14.7,2.3c1.3,0.1,2.8-1.5,4.3-2.4c-1-1.1-1.9-2.4-3-3.3c-0.8-0.6-1.9-0.7-3-0.9c-38.8-7.8-71.3,2.7-96.9,33.2
	c-3,3.6-5.8,7.5-8.7,11.3c-24-10.3-48.1-10.6-71.2-1.8C208.4,36.5,201.2,27.6,192.5,20.4z"/>
</svg>
